<svg id="visual" viewBox="0 0 900 600" width="900" height="600" xmlns="http://www.w3.org/2000/svg" xmlns:xlink="http://www.w3.org/1999/xlink" version="1.1"><path d="M735 600L732.8 585.7C730.7 571.3 726.3 542.7 717.5 514.2C708.7 485.7 695.3 457.3 693.2 428.8C691 400.3 700 371.7 713.7 343C727.3 314.3 745.7 285.7 756.7 257C767.7 228.3 771.3 199.7 763.3 171.2C755.3 142.7 735.7 114.3 717.8 85.8C700 57.3 684 28.7 676 14.3L668 0L900 0L900 14.3C900 28.7 900 57.3 900 85.8C900 114.3 900 142.7 900 171.2C900 199.7 900 228.3 900 257C900 285.7 900 314.3 900 343C900 371.7 900 400.3 900 428.8C900 457.3 900 485.7 900 514.2C900 542.7 900 571.3 900 585.7L900 600Z" fill="#791233" stroke-linecap="round" stroke-linejoin="miter"></path></svg>